# xmcd CD database file
#
# Track frame offsets:
#	150
#	20453
#	38352
#	60766
#	81777
#	108583
#	131908
#	166563
#	183976
#	207510
#	228232
#	252765
#
# Disc length: 3748 seconds
#
# Revision: 0
# Processed by: cddbd v1.5.1PL0 Copyright (c) Steve Scherf et al.
# Submitted via: CDex 1.51
#
DISCID=8c0ea20c
DTITLE=die kleine kapelle - derLiebe Wellenschlag
DYEAR=1900
DGENRE=Salsa
TTITLE0=gabi
TTITLE1=Nur nicht
TTITLE2=de rien
TTITLE3=Volare
TTITLE4=einmal nur
TTITLE5=Ostkreuzmanne
TTITLE6=pacemu
TTITLE7=rucola
TTITLE8=manicero
TTITLE9=Manbo Jamba
TTITLE10=schwarze augen
TTITLE11=Marina
EXTD=
EXTT0=
EXTT1=
EXTT2=
EXTT3=
EXTT4=
EXTT5=
EXTT6=
EXTT7=
EXTT8=
EXTT9=
EXTT10=
EXTT11=
PLAYORDER=
